<svg version="1.1" id="Layer_1" xmlns="http://www.w3.org/2000/svg" x="0" y="0" viewBox="0 0 42 48.5" xml:space="preserve"><style>.st1{fill:#ff671f}.st2{fill:#e04e39}</style><path fill="#fff" d="M6.8 32.5V16L27.7 3.9l7.5 4.3-6.7 3.9 6.7 3.9v16.5l-7.4 4.3V20.3L21 16.4l-6.8 3.9v7.8l7 4.1v8.6z"/><path class="st1" d="M28 4l-7-4-7.4 4.3-5.7 3.2L0 12.1v2l7 4.1v-2z"/><path class="st2" d="M21 40.4L7 32.3V16.2l-7-4.1v24.3l21 12.1 1.4-.8v-8.1z"/><path class="st1" d="M21 16.2l-7 4v1.7l7 4 7-4v-1.7zm14-8.1l-7 4 7 4.1v1.6l7-4v-1.7z"/><path class="st2" d="M21 24.3l-7-4.1v8.1l7 4.1 1.4-.9v-8.1z"/><path fill="#a72b2a" d="M21 24.3v24.2l21-12.1V12.1l-7 4.1v16.1l-7 4.1V20.2z"/></svg>