<?xml version="1.0" encoding="UTF-8" standalone="no"?>
<!-- Created with Inkscape (http://www.inkscape.org/) -->

<svg
   xmlns:dc="http://purl.org/dc/elements/1.1/"
   xmlns:cc="http://creativecommons.org/ns#"
   xmlns:rdf="http://www.w3.org/1999/02/22-rdf-syntax-ns#"
   xmlns:svg="http://www.w3.org/2000/svg"
   xmlns="http://www.w3.org/2000/svg"
   xmlns:sodipodi="http://sodipodi.sourceforge.net/DTD/sodipodi-0.dtd"
   xmlns:inkscape="http://www.inkscape.org/namespaces/inkscape"
   version="1.1"
   id="svg2"
   xml:space="preserve"
   width="182.27693"
   height="61.737865"
   viewBox="0 0 182.27693 61.737864"
   sodipodi:docname="Vikram Solar.svg"
   inkscape:version="0.92.1 r15371"><metadata
     id="metadata8"><rdf:RDF><cc:Work
         rdf:about=""><dc:format>image/svg+xml</dc:format><dc:type
           rdf:resource="http://purl.org/dc/dcmitype/StillImage" /><dc:title></dc:title></cc:Work></rdf:RDF></metadata><defs
     id="defs6"><clipPath
       clipPathUnits="userSpaceOnUse"
       id="clipPath18"><path
         d="M 442.394,771.331 H 579.36 v 46.473 H 442.394 Z"
         id="path16"
         inkscape:connector-curvature="0" /></clipPath></defs><sodipodi:namedview
     pagecolor="#ffffff"
     bordercolor="#666666"
     borderopacity="1"
     objecttolerance="10"
     gridtolerance="10"
     guidetolerance="10"
     inkscape:pageopacity="0"
     inkscape:pageshadow="2"
     inkscape:window-width="1366"
     inkscape:window-height="705"
     id="namedview4"
     showgrid="false"
     fit-margin-top="0"
     fit-margin-left="0"
     fit-margin-right="0"
     fit-margin-bottom="0"
     inkscape:zoom="0.20025116"
     inkscape:cx="-165.20957"
     inkscape:cy="-439.18132"
     inkscape:window-x="-8"
     inkscape:window-y="-8"
     inkscape:window-maximized="1"
     inkscape:current-layer="g10" /><g
     id="g10"
     inkscape:groupmode="layer"
     inkscape:label="A9R19lv8bf_1dkhkj5_ajg"
     transform="matrix(1.3333333,0,0,-1.3333333,-590.06025,1090.1792)"><g
       id="g12"><g
         id="g14"
         clip-path="url(#clipPath18)"><g
           id="g20"
           transform="translate(529.6446,785.6679)"><path
             d="m 0,0 c -0.828,0.411 -1.709,0.616 -2.647,0.616 -1.37,0 -2.496,-0.404 -3.376,-1.213 -0.88,-0.809 -1.32,-1.785 -1.32,-2.925 0,-1.769 1.168,-3.242 3.502,-4.418 l 1.221,-0.61 c 1.053,-0.531 1.578,-1.075 1.578,-1.631 0,-0.301 -0.146,-0.567 -0.437,-0.796 -0.292,-0.23 -0.677,-0.345 -1.153,-0.345 -0.444,0 -0.95,0.153 -1.52,0.457 -0.57,0.306 -1.068,0.705 -1.492,1.2 l -2.229,-2.427 c 1.255,-1.645 2.936,-2.467 5.041,-2.467 1.582,0 2.846,0.429 3.787,1.287 0.942,0.858 1.413,1.927 1.413,3.21 0,0.964 -0.262,1.804 -0.783,2.521 -0.522,0.715 -1.481,1.419 -2.879,2.108 L -2.62,-4.77 c -0.575,0.283 -0.935,0.506 -1.081,0.671 -0.146,0.163 -0.219,0.342 -0.219,0.537 0,0.255 0.115,0.471 0.345,0.643 0.23,0.173 0.548,0.259 0.955,0.259 0.743,0 1.569,-0.451 2.48,-1.353 l 2.243,2.242 C 1.527,-1.003 0.827,-0.412 0,0"
             style="fill:#cf181f;fill-opacity:1;fill-rule:nonzero;stroke:none"
             id="path22"
             inkscape:connector-curvature="0" /></g><g
           id="g24"
           transform="translate(548.0681,778.7098)"><path
             d="m 0,0 c 0,1.353 -0.336,2.613 -1.008,3.781 -0.672,1.167 -1.607,2.09 -2.806,2.772 -1.198,0.68 -2.478,1.021 -3.84,1.021 -1.884,0 -3.551,-0.654 -5.001,-1.963 -1.654,-1.503 -2.481,-3.383 -2.481,-5.638 0,-2.105 0.732,-3.893 2.196,-5.366 1.464,-1.472 3.23,-2.208 5.299,-2.208 1.407,0 2.693,0.334 3.861,1.002 1.167,0.667 2.089,1.594 2.765,2.779 C -0.339,-2.635 0,-1.362 0,0 m -3.648,-0.014 c 0,-1.238 -0.376,-2.25 -1.129,-3.037 -0.753,-0.788 -1.697,-1.181 -2.83,-1.181 -1.135,0 -2.071,0.389 -2.81,1.167 -0.741,0.779 -1.11,1.796 -1.11,3.051 0,1.221 0.374,2.223 1.123,3.005 0.747,0.783 1.684,1.174 2.809,1.174 1.152,0 2.098,-0.386 2.838,-1.161 0.739,-0.774 1.109,-1.78 1.109,-3.018"
             style="fill:#cf181f;fill-opacity:1;fill-rule:nonzero;stroke:none"
             id="path26"
             inkscape:connector-curvature="0" /></g><path
           d="m 549.352,771.483 h 3.622 v 20.003 h -3.622 z"
           style="fill:#cf181f;fill-opacity:1;fill-rule:nonzero;stroke:none"
           id="path28"
           inkscape:connector-curvature="0" /><g
           id="g30"
           transform="translate(569.3731,771.4833)"><path
             d="m 0,0 v 14.433 h -3.621 v -1.592 c -0.645,0.654 -1.347,1.146 -2.107,1.472 -0.759,0.327 -1.572,0.491 -2.437,0.491 -1.882,0 -3.481,-0.712 -4.797,-2.136 -1.316,-1.423 -1.974,-3.25 -1.974,-5.477 0,-2.15 0.68,-3.948 2.04,-5.393 1.36,-1.447 2.973,-2.169 4.836,-2.169 0.83,0 1.602,0.148 2.312,0.444 0.712,0.296 1.42,0.78 2.127,1.452 V 0 Z m -3.462,7.243 c 0,-1.282 -0.375,-2.319 -1.124,-3.111 -0.748,-0.791 -1.692,-1.187 -2.829,-1.187 -1.101,0 -2.029,0.402 -2.783,1.208 -0.753,0.804 -1.13,1.83 -1.13,3.077 0,1.238 0.37,2.253 1.111,3.045 0.739,0.791 1.669,1.187 2.79,1.187 1.145,0 2.093,-0.39 2.841,-1.167 0.749,-0.779 1.124,-1.796 1.124,-3.052"
             style="fill:#cf181f;fill-opacity:1;fill-rule:nonzero;stroke:none"
             id="path32"
             inkscape:connector-curvature="0" /></g><g
           id="g34"
           transform="translate(571.5069,771.4833)"><path
             d="M 0,0 H 3.595 V 5.836 L 3.581,6.54 c 0,2.017 0.193,3.369 0.577,4.059 0.385,0.69 0.856,1.035 1.414,1.035 0.273,0 0.622,-0.106 1.047,-0.319 l 1.127,3.118 C 7.234,14.68 6.743,14.803 6.274,14.803 5.611,14.803 5,14.618 4.444,14.248 3.886,13.875 3.44,13.331 3.104,12.615 v 1.818 H 0 Z"
             style="fill:#cf181f;fill-opacity:1;fill-rule:nonzero;stroke:none"
             id="path36"
             inkscape:connector-curvature="0" /></g><g
           id="g38"
           transform="translate(456.3712,785.946)"><path
             d="M 0,0 -4.997,-14.456 H -8.838 L -13.826,0 h 4.077 L -6.848,-9.548 -3.87,0 Z M 4.712,1.653 H 1.029 v 3.553 h 3.683 z m 0,-16.162 H 1.029 v 14.456 h 3.683 z m 14.709,0 h -4.127 l -3.06,6.487 -1.801,-1.929 v -4.558 H 6.742 v 19.5 h 3.691 V -5.556 l 4.594,5.504 h 4.501 l -4.651,-5.341 z m 9.403,10.904 c -0.338,0.06 -0.683,0.082 -1.021,0.082 -2.247,0 -3.374,-1.171 -3.374,-3.472 v -7.514 h -3.681 v 14.457 h 3.474 v -1.11 c 0,-0.41 0,-0.634 0.027,-0.634 0.023,0.039 0.051,0.039 0.08,0.059 0.704,0.761 1.227,1.251 1.615,1.461 0.603,0.365 1.415,0.55 2.384,0.55 h 0.496 z m 12.777,-10.904 h -3.423 c -0.102,0.186 -0.209,0.596 -0.338,1.17 -0.861,-0.984 -2.218,-1.461 -4.077,-1.461 -1.278,0 -2.348,0.291 -3.187,0.925 -0.971,0.722 -1.465,1.749 -1.465,3.141 0,1.974 0.732,3.33 2.219,4.067 0.681,0.351 2.067,0.657 4.156,0.924 1.493,0.187 2.224,0.619 2.224,1.236 0,0.573 -0.206,1.007 -0.65,1.355 -0.446,0.329 -0.972,0.493 -1.574,0.493 -0.595,0 -1.12,-0.164 -1.564,-0.515 -0.496,-0.371 -0.763,-0.923 -0.841,-1.6 h -3.496 c 0.078,1.169 0.338,2.115 0.804,2.852 0.445,0.722 1.157,1.276 2.146,1.683 0.912,0.35 1.959,0.536 3.139,0.536 3.94,-0.023 5.927,-2.009 5.927,-5.892 z m -3.891,7.046 c -0.364,-0.289 -0.989,-0.536 -1.938,-0.722 -1.01,-0.186 -1.693,-0.388 -2.009,-0.575 -0.653,-0.349 -0.971,-0.945 -0.971,-1.788 0,-1.086 0.556,-1.622 1.653,-1.622 0.495,0 1.02,0.128 1.535,0.37 0.554,0.248 0.949,0.516 1.239,0.865 0.355,0.47 0.541,1.171 0.541,2.094 0,0.165 0,0.409 -0.027,0.7 -0.023,0.306 -0.023,0.551 -0.023,0.678 m 25.902,-7.046 h -3.605 v 8.728 c 0,0.961 -0.234,1.684 -0.687,2.236 -0.382,0.476 -0.857,0.722 -1.466,0.722 -0.62,0 -1.171,-0.268 -1.618,-0.782 -0.493,-0.574 -0.729,-1.333 -0.729,-2.278 v -8.626 h -3.683 v 8.683 c 0,0.968 -0.107,1.684 -0.343,2.079 -0.34,0.573 -0.932,0.843 -1.853,0.843 -1.494,0 -2.247,-0.948 -2.247,-2.818 v -8.787 h -3.69 v 14.457 h 3.482 v -1.379 c 0,-0.528 0,-0.796 0.021,-0.796 0,0.037 0,0.037 0.029,0.059 0.545,0.864 1.098,1.497 1.642,1.87 0.634,0.409 1.417,0.618 2.356,0.618 0.942,0 1.694,-0.148 2.268,-0.513 0.554,-0.352 1.107,-0.969 1.602,-1.812 0.494,0.783 1.041,1.359 1.64,1.789 0.582,0.408 1.281,0.596 2.115,0.596 0.89,0 1.759,-0.247 2.57,-0.7 0.811,-0.469 1.363,-1.088 1.702,-1.825 0.335,-0.759 0.494,-1.542 0.494,-2.362 z"
             style="fill:#231f20;fill-opacity:1;fill-rule:nonzero;stroke:none"
             id="path40"
             inkscape:connector-curvature="0" /></g><g
           id="g42"
           transform="translate(512.7279,817.6344)"><path
             d="m 0,0 c 0,0 -8.016,-2.024 -8.936,-11.245 0,0 3.088,-0.278 4.71,-0.278 0,0 0.277,5.393 5.587,6.853 z"
             style="fill:#cf181f;fill-opacity:1;fill-rule:nonzero;stroke:none"
             id="path44"
             inkscape:connector-curvature="0" /></g><g
           id="g46"
           transform="translate(498.0913,811.0538)"><path
             d="m 0,0 c 0,0 -0.545,-8.41 7.553,-12.304 0,0 1.216,2.816 1.741,4.414 0,0 -4.99,2.024 -4.603,7.704 z"
             style="fill:#cf181f;fill-opacity:1;fill-rule:nonzero;stroke:none"
             id="path48"
             inkscape:connector-curvature="0" /></g><g
           id="g50"
           transform="translate(515.4572,790.9865)"><path
             d="m 0,0 c 0,0 5.329,6.532 0.835,14.542 0,0 -2.654,-1.654 -3.969,-2.65 0,0 2.845,-4.529 -0.614,-8.954 z"
             style="fill:#cf181f;fill-opacity:1;fill-rule:nonzero;stroke:none"
             id="path52"
             inkscape:connector-curvature="0" /></g><g
           id="g54"
           transform="translate(523.3782,805.3328)"><path
             d="m 0,0 c 0,0 -4.355,7.117 -13.104,5.287 0,0 0.625,-3.018 1.108,-4.629 0,0 5.184,1.437 8.113,-3.389 z"
             style="fill:#cf181f;fill-opacity:1;fill-rule:nonzero;stroke:none"
             id="path56"
             inkscape:connector-curvature="0" /></g><g
           id="g58"
           transform="translate(499.8032,794.4693)"><path
             d="m 0,0 c 0,0 7.582,-3.031 13.56,3.858 0,0 -2.236,2.035 -3.544,3.031 0,0 -3.343,-4.363 -8.464,-2.3 z"
             style="fill:#cf181f;fill-opacity:1;fill-rule:nonzero;stroke:none"
             id="path60"
             inkscape:connector-curvature="0" /></g></g></g></g></svg>